<svg height="32pt" viewBox="0 0 511.99971 511" width="32pt" xmlns="http://www.w3.org/2000/svg"><path d="m179.761719 256.5h160.0625v-27.734375c0-22.140625 17.949219-40.089844 40.085937-40.089844 22.140625 0 40.085938 17.949219 40.085938 40.089844v27.734375h78.890625v-224.488281c0-11.832031-9.589844-21.417969-21.417969-21.417969h-297.707031" fill="#ff9155"/><path d="m253.179688 335.625v-163.867188h-27.734376c-22.140624 0-40.085937-17.949218-40.085937-40.085937 0-22.140625 17.945313-40.089844 40.085937-40.089844h27.734376v-80.988281h-223.390626c-11.828124 0-21.417968 9.585938-21.417968 21.414062v309.089844" fill="#a2d5f2"/><path d="m339.324219 256.5h-168.273438v27.304688c0 22.140624-17.945312 40.085937-40.085937 40.085937-22.136719 0-40.085938-17.945313-40.085938-40.085937v-27.304688h-83.105468v223.785156c0 11.828125 9.589843 21.417969 21.417968 21.417969h310.132813" fill="#a5dc69"/><path d="m499.484375 363.945312v-107.445312h-78.097656v-27.734375c0-22.140625-17.949219-40.089844-40.085938-40.089844-22.140625 0-40.085937 17.949219-40.085937 40.089844v27.734375h-88.035156v79.125h27.738281c22.136719 0 40.085937 17.945312 40.085937 40.085938 0 22.140624-17.949218 40.085937-40.085937 40.085937h-27.738281v85.90625h224.886718c11.828125 0 21.417969-9.589844 21.417969-21.417969v-36.109375" fill="#fff"/><path d="m501.800781 434.085938c-5.574219 0-10.09375 4.519531-10.09375 10.089843v36.109375c0 6.242188-5.078125 11.324219-11.324219 11.324219h-214.792968v-65.71875h17.640625c27.671875 0 50.179687-22.511719 50.179687-50.179687 0-27.667969-22.507812-50.179688-50.179687-50.179688h-17.640625v-58.9375h77.941406c5.570312 0 10.089844-4.519531 10.089844-10.09375v-27.734375c0-16.308594 13.082031-29.617187 29.300781-29.988281 16.21875.371094 29.300781 13.679687 29.300781 29.988281v27.734375c0 5.574219 4.515625 10.09375 10.089844 10.09375h69.394531v97.351562c0 5.574219 4.519531 10.09375 10.09375 10.09375 5.570313 0 10.089844-4.519531 10.089844-10.09375v-107.445312c0-1.203125-.210937-2.355469-.597656-3.425781v-221.0625c0-17.375-14.136719-31.511719-31.511719-31.511719h-447.675781c-17.375 0-31.507813 14.136719-31.507813 31.511719v221.0625c-.386718 1.070312-.597656 2.222656-.597656 3.425781v223.785156c0 17.375 14.136719 31.511719 31.507812 31.511719h223.390626c.101562 0 .203124-.003906.300781-.007813.097656.003907.199219.007813.296875.007813h224.886718c17.375 0 31.507813-14.136719 31.507813-31.511719v-36.109375c0-5.570312-4.519531-10.089843-10.089844-10.089843zm-10.691406-402.074219v214.398437h-57.3125v-17.644531c0-27.667969-22.511719-50.179687-50.179687-50.179687-.230469 0-.464844.003906-.695313.003906s-.460937-.003906-.695313-.003906c-27.667968 0-50.175781 22.511718-50.175781 50.179687v17.644531h-66.460937v-74.652344c0-5.574218-4.519532-10.09375-10.09375-10.09375h-27.734375c-16.539063 0-29.996094-13.453124-29.996094-29.992187s13.457031-29.996094 29.996094-29.996094h27.734375c5.574218 0 10.09375-4.515625 10.09375-10.089843v-70.902344h214.195312c6.246094 0 11.324219 5.082031 11.324219 11.328125zm-470.328125 0c0-6.246094 5.082031-11.328125 11.328125-11.328125h213.296875v60.808594h-17.644531c-27.667969 0-50.179688 22.507812-50.179688 50.179687 0 27.667969 22.511719 50.175781 50.179688 50.175781h17.644531v64.558594h-72.035156c-5.574219 0-10.09375 4.519531-10.09375 10.09375v27.304688c0 16.539062-13.453125 29.996093-29.992188 29.996093-16.542968 0-29.996094-13.457031-29.996094-29.996093v-23.875c.386719-1.070313.597657-2.226563.597657-3.429688 0-5.574219-4.519531-10.089844-10.09375-10.089844h-73.011719zm-.597656 448.273437v-213.691406h62.921875v17.210938c0 27.671874 22.507812 50.179687 50.179687 50.179687 27.667969 0 50.175782-22.507813 50.175782-50.179687v-17.210938h61.945312v69.03125c0 5.574219 4.519531 10.089844 10.09375 10.089844h27.734375c16.539063 0 29.992187 13.457031 29.992187 29.996094 0 16.539062-13.453124 29.996093-29.992187 29.996093h-27.734375c-5.574219 0-10.09375 4.519531-10.09375 10.09375v75.8125h-213.898438c-6.242187-.003906-11.324218-5.082031-11.324218-11.328125zm0 0"/><path d="m109.058594 48.234375c0-5.574219-4.519532-10.09375-10.09375-10.09375h-37.605469c-10.851563 0-19.679687 8.828125-19.679687 19.679687v32.464844c0 5.574219 4.519531 10.089844 10.089843 10.089844 5.574219 0 10.09375-4.515625 10.09375-10.089844v-31.960937h37.101563c5.574218 0 10.09375-4.515625 10.09375-10.089844zm0 0"/><path d="m136.101562 52.277344c1.589844 3.925781 5.367188 6.308594 9.359376 6.308594 1.257812 0 2.539062-.234376 3.78125-.738282 5.167968-2.089844 7.660156-7.972656 5.570312-13.140625l-.210938-.519531c-2.089843-5.167969-7.976562-7.660156-13.140624-5.570312-5.164063 2.089843-7.660157 7.972656-5.570313 13.140624zm0 0"/><path d="m511.050781 399.484375c-2.09375-5.167969-7.976562-7.660156-13.140625-5.566406-5.167968 2.089843-7.660156 7.972656-5.570312 13.140625l.210937.515625c1.589844 3.925781 5.367188 6.308593 9.355469 6.308593 1.261719 0 2.546875-.238281 3.785156-.738281 5.167969-2.09375 7.660156-7.976562 5.566406-13.144531zm0 0"/></svg>