<?xml version="1.0"?>
<svg xmlns="http://www.w3.org/2000/svg" id="Layer_1" data-name="Layer 1" viewBox="0 0 512 512" width="32pt" height="32pt"><title>Receive package 2</title><path d="M316.96,424.4A96,96,0,1,1,400,472.22,95.391,95.391,0,0,1,316.96,424.4Z" style="fill:#6fe3ff"/><path d="M400,135.55V280.22A96.008,96.008,0,0,0,316.96,424.4L208,487.3V246.38L399.98,135.54Z" style="fill:#c16752"/><polygon points="208 246.38 141.14 207.78 333.13 96.94 399.98 135.54 208 246.38" style="fill:#e48e66"/><polygon points="333.13 96.94 141.14 207.78 92.21 179.53 284.19 68.69 333.13 96.94" style="fill:#e5d45a"/><polygon points="208 24.7 284.19 68.69 92.21 179.53 92.2 179.53 16.02 135.54 208 24.7" style="fill:#af593c"/><polygon points="208 246.38 208 487.3 16 376.45 16 135.55 16.02 135.54 92.2 179.53 92.2 339.28 115.45 329.68 140.8 358.48 140.8 207.98 141.14 207.78 208 246.38" style="fill:#e48e66"/><polygon points="141.14 207.78 140.8 207.98 140.8 358.48 115.45 329.68 92.2 339.28 92.2 179.53 92.21 179.53 141.14 207.78" style="fill:#f8ec7d"/><path d="M407,273.463V135.55a7.03,7.03,0,0,0-3.54-6.083L211.5,18.638a7,7,0,0,0-7,0L12.628,129.415A7,7,0,0,0,9,135.55v240.9a7,7,0,0,0,3.5,6.062l192,110.85a7,7,0,0,0,7,0l103.122-59.53A103,103,0,1,0,407,273.463ZM99,191.648l35,19.976V339.933l-13.195-14.878a7.229,7.229,0,0,0-8.076-1.845L99,328.816Zm7.21-12.118L284.191,76.772l34.935,20.17L141.141,199.7Zm226.916-74.5L385.98,135.54,208,238.3l-52.859-30.518ZM215,250.421,393,147.653v125.81a103.015,103.015,0,0,0-85.413,148.264L215,475.176ZM208,32.783l62.191,35.906L92.206,171.449,30.02,135.541ZM23,147.654l62,35.917V339.28a7.136,7.136,0,0,0,9.822,6.47l18.652-7.691,22.059,25.046a7.01,7.01,0,0,0,5.262,2.375,7.553,7.553,0,0,0,2.573-.451A7.094,7.094,0,0,0,148,358.48V219.707l53,30.714V475.176L23,372.409ZM400,465.22a89,89,0,1,1,89-89A89.32,89.32,0,0,1,400,465.22Z" style="fill:#63316d"/><path d="M244.854,293.881a7.185,7.185,0,0,0,6.292-3.687L255,283.247V343.42a7,7,0,1,0,14,0V273.051l5.69,6.155a6.929,6.929,0,0,0,9.836.284,7,7,0,0,0,.254-9.9l-17.915-18.96a7.011,7.011,0,0,0-11.267,1.491l-16.9,31.44a7,7,0,0,0,6.158,10.316Z" style="fill:#63316d"/><path d="M41,338.45a7,7,0,0,0-7,7v25.92a7,7,0,0,0,14,0V345.45A7,7,0,0,0,41,338.45Z" style="fill:#63316d"/><path d="M69,357.65a7,7,0,0,0-7,7V388a7,7,0,0,0,14,0V364.65A7,7,0,0,0,69,357.65Z" style="fill:#63316d"/><path d="M98,376.85a7,7,0,0,0-7,7v20.56a7,7,0,0,0,14,0V383.85A7,7,0,0,0,98,376.85Z" style="fill:#63316d"/><path d="M126,396.05a7,7,0,0,0-7,7v17.77a7,7,0,0,0,14,0V403.05A7,7,0,0,0,126,396.05Z" style="fill:#63316d"/><path d="M155,415.25a7,7,0,0,0-7,7v15.36a7,7,0,0,0,14,0V422.25A7,7,0,0,0,155,415.25Z" style="fill:#63316d"/><path d="M276.16,353.467l-31.89,18.41a7,7,0,1,0,7,12.125l31.89-18.41a7,7,0,1,0-7-12.125Z" style="fill:#63316d"/><path d="M404.949,316.27a7,7,0,0,0-9.9,0l-42.43,42.42a7,7,0,1,0,9.9,9.9L393,338.117V431.23a7,7,0,0,0,14,0V338.117l30.481,30.473a7,7,0,1,0,9.9-9.9Z" style="fill:#63316d"/></svg>
