<svg height="32pt" viewBox="0 -26 512 512" width="32pt" xmlns="http://www.w3.org/2000/svg"><path d="m504.5 393.40625h-101.480469v-241.835938h101.480469zm0 0" fill="#f8e868"/><path d="m7.5 188.929688h101.480469v204.476562h-101.480469zm0 0" fill="#d15573"/><path d="m139.339844 98.214844h101.480468v295.191406h-101.480468zm0 0" fill="#e2fc85"/><path d="m271.179688 7.5h101.480468v385.90625h-101.480468zm0 0" fill="#96d1f3"/><path d="m7.5 423.40625h497v30h-497zm0 0" fill="#cad8ea"/><path d="m403.019531 151.570312h30v241.835938h-30zm0 0" fill="#e0c938"/><path d="m7.5 188.929688h30v204.476562h-30zm0 0" fill="#c21d44"/><path d="m139.339844 98.214844h30v295.1875h-30zm0 0" fill="#6ad34d"/><path d="m271.179688 7.5h30v385.902344h-30zm0 0" fill="#3ca6e6"/><path d="m7.5 423.40625h30v30h-30zm0 0" fill="#b0c4e0"/><path d="m210.078125 253.308594h-15v-15h15zm-25 0h-15v-15h15zm0 0" fill="#fff"/><path d="m395.519531 144.070312v256.832032h74.304688v-15h-59.304688v-226.832032h86.480469v226.832032h-7.175781v15h22.175781v-256.832032zm0 0"/><path d="m116.480469 323.339844h-15v62.5625h-86.480469v-189.472656h86.480469v106.910156h15v-121.910156h-116.480469v219.472656h116.480469zm0 0"/><path d="m248.320312 220.453125h-15v165.449219h-86.480468v-280.1875h86.480468v94.738281h15v-109.738281h-116.480468v310.1875h116.480468zm0 0"/><path d="m380.160156 0h-38.214844v15h23.214844v370.902344h-86.480468v-370.902344h43.265624v-15h-58.265624v400.902344h116.480468zm0 0"/><path d="m0 460.902344h512v-45h-512zm15-30h482v15h-482zm0 0"/></svg>