<?xml version="1.0"?>
<svg xmlns="http://www.w3.org/2000/svg" id="Layer_1" data-name="Layer 1" viewBox="0 0 512 512" width="32pt" height="32pt"><title>Logistics company_1</title><g id="_Group_2" data-name=" Group 2"><path d="M496,220.77v70.46l-51.59,5.03a193.432,193.432,0,0,1-27.05,64.17l33.35,40.26-49.7,49.7-40.27-33.34a188.075,188.075,0,0,1-64.16,27.05l-5.04,52.21H221.09l-5.04-52.21a193.608,193.608,0,0,1-64.17-27.05l-40.26,33.34-49.7-49.7,33.35-40.26a188.06,188.06,0,0,1-27.06-64.17L16,291.23V220.77l52.21-5.03a193.452,193.452,0,0,1,27.06-64.17L61.92,111.31l49.7-49.7,40.26,33.34A188.209,188.209,0,0,1,216.05,67.9l5.04-52.21h70.45l5.04,52.21a193.469,193.469,0,0,1,64.16,27.05l40.27-33.34,49.07,49.7-33.35,40.26a188.06,188.06,0,0,1,27.06,64.17ZM416.31,256a160,160,0,1,0-160,160A159.994,159.994,0,0,0,416.31,256Z" style="fill:#e48e66"/><path d="M317.36,254.46H376v52a11.615,11.615,0,0,1-11.61,11.62H349.87a20.32,20.32,0,0,0-40.64,0H279.32V254.46Z" style="fill:#6fe3ff"/><path d="M346.09,221.87,376,254.46H317.36V218.11h20.17A11.635,11.635,0,0,1,346.09,221.87Z" style="fill:#6fe3ff"/><circle cx="329.55" cy="318.08" r="20.32" style="fill:#6fe3ff"/><rect x="279.32" y="218.11" width="38.04" height="36.35" style="fill:#6fe3ff"/><path d="M252.12,208.94v104.3a4.844,4.844,0,0,1-4.84,4.84H216.34a20.325,20.325,0,0,0-40.65,0H140.84a4.844,4.844,0,0,1-4.84-4.84V208.94h41.84v48.5l32.44,13.61V208.94Z" style="fill:#f8ec7d"/><path d="M231.02,175.84l21.1,33.1H194.06V173.6h32.88A4.842,4.842,0,0,1,231.02,175.84Z" style="fill:#f8ec7d"/><path d="M196.01,297.76a20.32,20.32,0,1,1-20.32,20.32A20.319,20.319,0,0,1,196.01,297.76Z" style="fill:#6fe3ff"/><polygon points="210.28 210.86 210.28 271.05 177.84 257.44 177.84 210.86 177.84 208.94 194.06 208.94 210.28 208.94 210.28 210.86" style="fill:#6fe3ff"/><path d="M194.06,173.6v35.34H136l21.1-33.1a4.842,4.842,0,0,1,4.08-2.24Z" style="fill:#f8ec7d"/><path d="M496.671,213.8l-47.192-4.546A196.219,196.219,0,0,0,425.4,152.082l30.075-36.307a7,7,0,0,0-.409-9.383l-49.071-49.7a7,7,0,0,0-9.445-.473L360.178,86.328a200.76,200.76,0,0,0-57.115-24.115l-4.555-47.041A6.867,6.867,0,0,0,291.54,9H221.09a6.867,6.867,0,0,0-6.968,6.172l-4.556,47.116a196.18,196.18,0,0,0-57.173,24.037L116.085,56.238a7,7,0,0,0-9.415.432l-49.7,49.694a7,7,0,0,0-.442,9.414l30.117,36.355a200.754,200.754,0,0,0-24.122,57.123L15.329,213.8A7,7,0,0,0,9,220.77v70.46a7,7,0,0,0,6.329,6.968l47.192,4.546A196.219,196.219,0,0,0,86.6,359.918L56.529,396.225a7,7,0,0,0,.442,9.416l49.7,49.7a7,7,0,0,0,9.415.441l36.358-30.109a201,201,0,0,0,57.123,24.115l4.556,47.041A6.867,6.867,0,0,0,221.09,503h70.45a6.867,6.867,0,0,0,6.968-6.172l4.555-47.116a196.072,196.072,0,0,0,57.166-24.037l36.317,30.087a7,7,0,0,0,9.413-.432l49.7-49.694a7,7,0,0,0,.441-9.414l-30.118-36.357A200.787,200.787,0,0,0,450.1,302.738l46.579-4.541A7,7,0,0,0,503,291.23V220.77A7,7,0,0,0,496.671,213.8ZM489,284.88l-45.269,4.413a7,7,0,0,0-6.163,5.488,186.953,186.953,0,0,1-26.089,61.854,7,7,0,0,0,.491,8.261l29.283,35.351-40.688,40.688L365.2,411.658a7,7,0,0,0-8.347-.432A181.489,181.489,0,0,1,295.1,437.258a6.825,6.825,0,0,0-5.49,6.014L285.184,489H227.446l-4.428-45.728a6.914,6.914,0,0,0-5.49-6.092,187,187,0,0,1-61.855-26.052,7,7,0,0,0-8.258.511l-35.352,29.285L71.377,400.242l29.283-35.349a7,7,0,0,0,.433-8.349,181.5,181.5,0,0,1-26.041-61.766,7,7,0,0,0-6.171-5.486L23,284.872V227.128l45.881-4.42a7,7,0,0,0,6.171-5.486,186.97,186.97,0,0,1,26.1-61.855,7,7,0,0,0-.49-8.263L71.377,111.753l40.686-40.687,35.352,29.276a7,7,0,0,0,8.347.433,181.611,181.611,0,0,1,61.766-26.033,6.825,6.825,0,0,0,5.49-6.014L227.446,23h57.738l4.428,45.728a6.914,6.914,0,0,0,5.49,6.092,186.839,186.839,0,0,1,61.843,26.051,7,7,0,0,0,8.259-.51l35.33-29.26,40.115,40.626-29.309,35.38a7,7,0,0,0-.433,8.349,181.5,181.5,0,0,1,26.041,61.766,7,7,0,0,0,6.171,5.486L489,227.128Z" style="fill:#63316d"/><path d="M256.31,89c-92.084,0-167,74.916-167,167s74.916,167,167,167,167-74.916,167-167S348.394,89,256.31,89Zm0,320c-84.365,0-153-68.636-153-153s68.635-153,153-153,153,68.636,153,153S340.674,409,256.31,409Z" style="fill:#63316d"/><path d="M382.939,253.585c-.014-.118-.033-.235-.053-.352s-.041-.222-.066-.332-.054-.221-.086-.331-.062-.22-.1-.328-.076-.214-.117-.32-.084-.211-.13-.315-.1-.206-.15-.308-.1-.2-.161-.3-.114-.194-.175-.289-.131-.2-.2-.3-.127-.173-.193-.258-.159-.2-.243-.293c-.039-.044-.072-.09-.111-.133l-29.918-32.653A18.739,18.739,0,0,0,337.53,211H318.562c-.391,0-.791-.11-1.2-.11s-.81.11-1.2.11H279.32a7.374,7.374,0,0,0-7.32,7.11V311H259V208.94a7.265,7.265,0,0,0,0-.9c-.01-.072.008-.142,0-.214a6.692,6.692,0,0,0-.151-.766c-.009-.037-.01-.074-.02-.111a6.962,6.962,0,0,0-.313-.854c-.019-.043-.039-.085-.06-.128a6.86,6.86,0,0,0-.379-.7c-.017-.029-.029-.061-.048-.09l-21.107-32.912A11.614,11.614,0,0,0,226.94,167H161.18a11.623,11.623,0,0,0-9.983,5.277l-21.1,33c-.019.029-.032.011-.049.04a6.6,6.6,0,0,0-.381.677c-.02.043-.042.071-.061.114a6.843,6.843,0,0,0-.316.849c-.011.036-.019.07-.028.107a6.682,6.682,0,0,0-.166.766c-.012.07-.024.14-.033.211a7,7,0,0,0-.064.9v104.3A11.785,11.785,0,0,0,140.84,325H169.6a27.325,27.325,0,0,0,52.823,0h80.717a27.318,27.318,0,0,0,52.813,0h8.433A18.568,18.568,0,0,0,383,306.46v-52c0-.059-.008-.115-.009-.173,0-.127-.009-.253-.019-.379C382.964,253.8,382.953,253.692,382.939,253.585Zm-42.006-27.267L360.074,247H324V225h13.53A4.49,4.49,0,0,1,340.933,226.318ZM310,225v22H286V225Zm-70.644-23H201V181h24.752ZM185,216h18v44.522l-18-7.736Zm-22.633-35H187v21H148.764ZM143,216h28v41.44a6.928,6.928,0,0,0,4.212,6.456l32.4,13.609a6.9,6.9,0,0,0,2.687.545,6.526,6.526,0,0,0,3.727-1.171A6.864,6.864,0,0,0,217,271.05V216h28v95H222.427a27.325,27.325,0,0,0-52.823,0H143Zm53.01,115.4a13.32,13.32,0,1,1,13.33-13.32A13.335,13.335,0,0,1,196.01,331.4Zm133.54,0a13.32,13.32,0,1,1,13.32-13.32A13.335,13.335,0,0,1,329.55,331.4ZM369,306.46a4.552,4.552,0,0,1-4.61,4.54h-8.433a27.318,27.318,0,0,0-52.813,0H286V261h30.1c.411,1,.833.12,1.265.12s.855.88,1.266-.12H369Z" style="fill:#63316d"/></g></svg>
